<svg width="198" height="62" viewBox="0 0 198 62" fill="none" xmlns="http://www.w3.org/2000/svg">
<g filter="url(#filter0_d_9_5)">
<path d="M49.7267 20.0723H20.0841C18.2896 20.0723 18.1567 18.4817 18.1567 16.4366C18.1567 14.4672 18.2896 12.8766 20.0841 12.8766H56.1736V0H12.3079C4.33232 0 4 7.34723 4 16.4366C4 25.6017 4.33232 32.9489 12.3079 32.9489H41.9505C43.745 32.9489 43.8779 34.5396 43.8779 36.5847C43.8779 38.554 43.745 40.1447 41.9505 40.1447H5.86096V53.0213H49.7267C57.7023 53.0213 58.0346 45.674 58.0346 36.5847C58.0346 27.4196 57.7023 20.0723 49.7267 20.0723Z" fill="#FEFEFE"/>
<path d="M95.7288 12.8009H126.701V0H95.7953C79.3124 0 72.0679 4.0131e-06 72.0679 16.2851V36.7362C72.0679 53.0213 79.3124 53.0213 95.7953 53.0213H126.701V27.2681H112.61V40.1447H95.7288C87.0886 40.1447 86.2246 40.2204 86.2246 30.7523V22.2689C86.2246 12.8009 87.0886 12.8009 95.7288 12.8009Z" fill="#FEFEFE"/>
<path d="M138.105 12.8766H194V0H138.105V12.8766ZM158.974 53.0213H173.131V20.0723H158.974V53.0213Z" fill="#FEFEFE"/>
</g>
<defs>
<filter id="filter0_d_9_5" x="0" y="0" width="198" height="61.0213" filterUnits="userSpaceOnUse" color-interpolation-filters="sRGB">
<feFlood flood-opacity="0" result="BackgroundImageFix"/>
<feColorMatrix in="SourceAlpha" type="matrix" values="0 0 0 0 0 0 0 0 0 0 0 0 0 0 0 0 0 0 127 0" result="hardAlpha"/>
<feOffset dy="4"/>
<feGaussianBlur stdDeviation="2"/>
<feComposite in2="hardAlpha" operator="out"/>
<feColorMatrix type="matrix" values="0 0 0 0 0 0 0 0 0 0 0 0 0 0 0 0 0 0 0.25 0"/>
<feBlend mode="normal" in2="BackgroundImageFix" result="effect1_dropShadow_9_5"/>
<feBlend mode="normal" in="SourceGraphic" in2="effect1_dropShadow_9_5" result="shape"/>
</filter>
</defs>
</svg>
